<?xml version="1.0" standalone="no"?>
<!DOCTYPE svg PUBLIC "-//W3C//DTD SVG 20010904//EN"
 "http://www.w3.org/TR/2001/REC-SVG-20010904/DTD/svg10.dtd">
<svg version="1.0" xmlns="http://www.w3.org/2000/svg"
 width="700.000000pt" height="700.000000pt" viewBox="0 0 700.000000 700.000000"
 preserveAspectRatio="xMidYMid meet">
<metadata>
Created by potrace 1.14, written by Peter Selinger 2001-2017
</metadata>
<g transform="translate(0.000000,700.000000) scale(0.100000,-0.100000)"
fill="#000000" stroke="none">
<path d="M490 6990 c-222 -29 -398 -181 -467 -406 -17 -57 -18 -178 -18 -3084
0 -2906 1 -3027 18 -3084 61 -198 195 -332 393 -393 57 -17 178 -18 3084 -18
2906 0 3027 1 3084 18 198 61 332 195 393 393 17 57 18 178 18 3084 0 2906 -1
3027 -18 3084 -60 195 -189 325 -387 392 -53 18 -157 19 -3050 20 -1647 1
-3020 -2 -3050 -6z m3420 -2715 l0 -1185 -250 0 -250 0 0 1185 0 1185 250 0
250 0 0 -1185z m821 1174 c11 -5 17 -14 14 -20 -4 -5 1 -9 9 -9 9 0 16 -7 16
-15 0 -9 6 -18 14 -21 8 -3 16 -15 19 -26 4 -15 11 -19 26 -15 17 4 21 0 21
-19 0 -13 5 -24 10 -24 6 0 10 5 10 10 0 19 15 10 27 -16 10 -22 10 -24 -3
-14 -11 10 -14 9 -14 -3 0 -23 41 -33 55 -14 10 14 12 14 22 -3 10 -15 9 -17
-8 -13 -17 5 -18 2 -11 -18 5 -13 17 -28 28 -34 28 -16 44 -32 37 -39 -4 -3 1
-6 11 -6 10 0 14 -5 10 -12 -4 -7 -3 -8 5 -4 19 12 51 -3 44 -21 -6 -14 -7
-14 -14 3 -6 16 -8 16 -8 2 -1 -23 14 -31 70 -33 l48 -3 -42 35 c-23 20 -43
39 -45 44 -2 5 -13 9 -24 9 -17 0 -18 3 -9 14 10 12 8 13 -11 9 -19 -5 -21 -3
-11 7 10 11 6 18 -22 37 -19 13 -35 29 -35 35 0 6 -10 19 -22 30 -17 14 -24
16 -31 6 -6 -10 -8 -9 -4 3 6 18 -85 111 -103 107 -7 -2 -16 7 -21 20 l-8 22
112 0 112 0 227 -227 228 -228 0 -337 c0 -186 -1 -338 -3 -338 -1 0 -256 254
-567 565 l-565 565 193 0 c116 0 201 -4 213 -11z m269 -239 c0 -5 -5 -10 -11
-10 -5 0 -7 5 -4 10 3 6 8 10 11 10 2 0 4 -4 4 -10z m-586 -166 c9 -3 13 -10
10 -16 -3 -5 -2 -330 2 -723 l7 -715 513 0 514 0 0 -252 0 -251 -377 6 c-207
4 -441 7 -521 7 l-145 0 7 215 c4 118 5 224 1 235 -6 19 -14 20 -251 20 l-244
0 0 733 c0 404 3 737 7 740 8 9 456 9 477 1z m-1550 -1371 c119 -120 184 -193
173 -193 -10 0 -15 -5 -12 -10 4 -6 14 -10 23 -9 22 3 52 -10 52 -22 0 -5 -12
-9 -26 -9 -21 0 -24 -3 -15 -14 9 -11 -18 -43 -140 -166 l-152 -152 -613 613
-614 614 0 340 1 340 567 -570 c311 -314 652 -657 756 -762z m-902 -318 c0
-129 1 -241 2 -247 1 -10 -49 -14 -211 -16 l-213 -2 0 250 0 250 210 0 210 0
2 -235z m604 -295 l842 0 8 -137 c4 -76 7 -181 5 -233 l-3 -95 40 -33 c23 -17
46 -32 51 -32 6 0 11 -6 11 -14 0 -31 83 -61 93 -33 3 9 8 9 21 -2 13 -11 19
-12 25 -3 4 6 18 13 31 14 18 2 25 -2 28 -17 1 -11 8 -31 15 -44 9 -19 9 -25
-4 -35 -29 -21 -41 -56 -35 -104 5 -44 21 -445 19 -504 0 -16 3 -28 7 -28 3 0
5 -13 2 -30 -2 -16 0 -30 4 -30 10 0 9 -13 18 245 12 382 18 423 50 395 9 -7
19 -10 22 -7 4 3 13 -1 22 -10 14 -13 17 -13 26 0 10 13 13 13 25 0 11 -12 15
-93 19 -399 l5 -384 -252 0 -251 0 0 520 0 520 -52 1 c-29 1 -450 1 -935 1
l-883 -1 0 244 0 243 93 -4 c50 -2 471 -4 933 -4z m2892 -237 l2 -243 -749 0
c-412 0 -756 -3 -765 -6 -14 -6 -16 20 -16 245 l0 251 763 -2 762 -3 3 -242z
m-864 -865 c172 -172 335 -337 362 -366 l48 -53 -132 2 c-73 1 -135 6 -138 11
-3 4 0 8 5 8 6 0 11 5 11 10 0 6 -15 10 -32 10 -24 0 -29 3 -19 9 12 8 12 12
2 25 -8 9 -18 16 -23 16 -5 0 -20 12 -33 26 -16 17 -30 24 -41 20 -15 -6 -15
-8 3 -24 11 -9 22 -24 26 -32 4 -12 6 -11 6 3 1 10 6 15 12 11 6 -3 8 -15 6
-26 -4 -14 -2 -18 9 -14 8 3 14 -1 14 -11 0 -9 8 -22 18 -29 14 -11 -14 -13
-178 -13 l-195 0 -200 195 -200 194 170 170 c93 94 173 170 177 170 5 0 149
-141 322 -312z"/>
<path d="M5100 5056 c7 -7 13 -7 20 0 6 6 3 10 -10 10 -13 0 -16 -4 -10 -10z"/>
<path d="M5129 5043 c-9 -11 -10 -14 -2 -9 18 10 41 -14 36 -39 -3 -17 -2 -17
6 3 13 27 31 29 26 2 -2 -11 0 -22 6 -25 12 -8 12 27 -1 59 -11 31 -50 35 -71
9z"/>
<path d="M5230 5012 c0 -5 7 -15 15 -22 8 -7 15 -8 15 -2 0 5 -7 15 -15 22 -8
7 -15 8 -15 2z"/>
<path d="M5238 4962 c14 -12 31 -18 43 -15 25 7 12 16 -36 27 l-30 8 23 -20z"/>
<path d="M5320 4900 c-20 -12 -10 -19 14 -10 11 3 15 9 10 13 -6 3 -16 2 -24
-3z"/>
<path d="M5305 4850 c3 -5 8 -10 11 -10 2 0 4 5 4 10 0 6 -5 10 -11 10 -5 0
-7 -4 -4 -10z"/>
<path d="M5368 4788 c5 -5 16 -8 23 -6 8 3 3 7 -10 11 -17 4 -21 3 -13 -5z"/>
<path d="M4286 4890 c-12 -13 -20 -39 -23 -77 -5 -62 2 -70 12 -13 3 19 14 42
25 52 19 15 28 59 13 57 -5 0 -16 -9 -27 -19z"/>
<path d="M4230 4819 c0 -5 5 -7 10 -4 6 3 10 8 10 11 0 2 -4 4 -10 4 -5 0 -10
-5 -10 -11z"/>
<path d="M4230 4785 c0 -8 5 -15 10 -15 6 0 10 7 10 15 0 8 -4 15 -10 15 -5 0
-10 -7 -10 -15z"/>
<path d="M4230 4741 c0 -6 5 -13 10 -16 6 -3 10 1 10 9 0 9 -4 16 -10 16 -5 0
-10 -4 -10 -9z"/>
<path d="M4581 3246 c-58 -60 -62 -66 -40 -66 14 0 29 4 35 9 5 5 20 11 33 13
32 4 40 28 9 29 -73 4 125 18 285 19 103 1 189 6 192 10 8 13 -164 36 -340 46
l-110 6 -64 -66z"/>
<path d="M2553 3569 c6 -10 15 -19 19 -19 5 0 8 -7 8 -15 0 -8 7 -15 15 -15
18 0 20 34 3 47 -7 6 -23 13 -35 15 -19 5 -20 4 -10 -13z"/>
<path d="M2620 3529 c1 -19 25 -50 33 -43 3 4 12 -5 18 -20 7 -14 18 -26 26
-26 7 0 17 -8 20 -17 4 -9 15 -25 25 -35 17 -17 18 -17 18 0 0 15 -77 103
-123 141 -14 11 -17 11 -17 0z"/>
<path d="M2425 2800 c-3 -5 1 -10 10 -10 9 0 13 5 10 10 -3 6 -8 10 -10 10 -2
0 -7 -4 -10 -10z"/>
<path d="M2600 2800 c-12 -8 -9 -10 13 -10 16 0 26 4 22 10 -8 12 -16 12 -35
0z"/>
<path d="M2785 2800 c3 -5 8 -10 11 -10 2 0 4 5 4 10 0 6 -5 10 -11 10 -5 0
-7 -4 -4 -10z"/>
<path d="M2870 2800 l-25 -8 28 -1 c15 -1 27 4 27 9 0 6 -1 10 -2 9 -2 -1 -14
-5 -28 -9z"/>
<path d="M2910 2800 c0 -13 20 -13 40 0 12 8 9 10 -12 10 -16 0 -28 -4 -28
-10z"/>
<path d="M2990 2799 c0 -5 10 -9 22 -9 12 0 18 3 14 7 -10 11 -36 12 -36 2z"/>
<path d="M3043 2796 c6 -19 127 -18 127 2 0 4 -29 7 -65 8 -43 1 -64 -3 -62
-10z"/>
<path d="M2498 2793 c7 -3 16 -2 19 1 4 3 -2 6 -13 5 -11 0 -14 -3 -6 -6z"/>
<path d="M4450 1809 c0 -5 5 -7 10 -4 6 3 10 8 10 11 0 2 -4 4 -10 4 -5 0 -10
-5 -10 -11z"/>
<path d="M4520 1780 c0 -5 5 -10 11 -10 5 0 7 5 4 10 -3 6 -8 10 -11 10 -2 0
-4 -4 -4 -10z"/>
<path d="M4485 1760 c3 -5 10 -10 16 -10 5 0 9 5 9 10 0 6 -7 10 -16 10 -8 0
-12 -4 -9 -10z"/>
<path d="M4535 1750 c-3 -5 -3 -15 1 -21 6 -11 23 6 24 24 0 10 -18 9 -25 -3z"/>
<path d="M4580 1690 c0 -5 5 -10 10 -10 6 0 10 5 10 10 0 6 -4 10 -10 10 -5 0
-10 -4 -10 -10z"/>
</g>
</svg>
