<svg width="380" height="380" viewBox="0 0 380 380" fill="none" xmlns="http://www.w3.org/2000/svg">
<g opacity="0.3" filter="url(#filter0_f_23_36457)">
<path d="M-255.691 584.607L-275.602 558.41L-95.0419 28.7094L183.71 395.455L-255.691 584.607Z" fill="url(#paint0_linear_23_36457)"/>
<path d="M-255.691 584.607L-275.602 558.41L-95.0419 28.7094L183.71 395.455L-255.691 584.607Z" fill="#2B75C8"/>
</g>
<g opacity="0.4" filter="url(#filter1_f_23_36457)">
<path d="M-235.691 734.606L-255.602 708.41L-75.0418 178.709L203.71 545.454L-235.691 734.606Z" fill="url(#paint1_linear_23_36457)"/>
<path d="M-235.691 734.606L-255.602 708.41L-75.0418 178.709L203.71 545.454L-235.691 734.606Z" fill="#2B75C8"/>
</g>
<g opacity="0.2" filter="url(#filter2_f_23_36457)">
<path d="M-198.858 674.819L-202.26 669.26L268.31 253.334L315.936 331.155L-198.858 674.819Z" fill="url(#paint2_linear_23_36457)"/>
</g>
<g opacity="0.2" filter="url(#filter3_f_23_36457)">
<path d="M-172.839 638.76L-178.111 634.485L12.9772 160.32L86.791 220.169L-172.839 638.76Z" fill="url(#paint3_linear_23_36457)"/>
</g>
<g opacity="0.1" filter="url(#filter4_f_23_36457)">
<path d="M-157.012 639.787L-158.779 638.005L97.1155 295.618L121.85 320.567L-157.012 639.787Z" fill="url(#paint4_linear_23_36457)"/>
</g>
<g opacity="0.2" filter="url(#filter5_f_23_36457)">
<path d="M-164.611 642.45L-166.347 640.652L98.5984 303.857L122.903 329.023L-164.611 642.45Z" fill="url(#paint5_linear_23_36457)"/>
</g>
<defs>
<filter id="filter0_f_23_36457" x="-432.382" y="-128.071" width="772.872" height="869.457" filterUnits="userSpaceOnUse" color-interpolation-filters="sRGB">
<feFlood flood-opacity="0" result="BackgroundImageFix"/>
<feBlend mode="normal" in="SourceGraphic" in2="BackgroundImageFix" result="shape"/>
<feGaussianBlur stdDeviation="78.39" result="effect1_foregroundBlur_23_36457"/>
</filter>
<filter id="filter1_f_23_36457" x="-422.382" y="11.9292" width="792.872" height="889.457" filterUnits="userSpaceOnUse" color-interpolation-filters="sRGB">
<feFlood flood-opacity="0" result="BackgroundImageFix"/>
<feBlend mode="normal" in="SourceGraphic" in2="BackgroundImageFix" result="shape"/>
<feGaussianBlur stdDeviation="83.39" result="effect1_foregroundBlur_23_36457"/>
</filter>
<filter id="filter2_f_23_36457" x="-238.716" y="216.878" width="591.107" height="494.397" filterUnits="userSpaceOnUse" color-interpolation-filters="sRGB">
<feFlood flood-opacity="0" result="BackgroundImageFix"/>
<feBlend mode="normal" in="SourceGraphic" in2="BackgroundImageFix" result="shape"/>
<feGaussianBlur stdDeviation="18.228" result="effect1_foregroundBlur_23_36457"/>
</filter>
<filter id="filter3_f_23_36457" x="-206.809" y="131.622" width="322.298" height="535.836" filterUnits="userSpaceOnUse" color-interpolation-filters="sRGB">
<feFlood flood-opacity="0" result="BackgroundImageFix"/>
<feBlend mode="normal" in="SourceGraphic" in2="BackgroundImageFix" result="shape"/>
<feGaussianBlur stdDeviation="14.349" result="effect1_foregroundBlur_23_36457"/>
</filter>
<filter id="filter4_f_23_36457" x="-171.85" y="282.547" width="306.772" height="370.311" filterUnits="userSpaceOnUse" color-interpolation-filters="sRGB">
<feFlood flood-opacity="0" result="BackgroundImageFix"/>
<feBlend mode="normal" in="SourceGraphic" in2="BackgroundImageFix" result="shape"/>
<feGaussianBlur stdDeviation="6.53564" result="effect1_foregroundBlur_23_36457"/>
</filter>
<filter id="filter5_f_23_36457" x="-187.772" y="282.432" width="332.1" height="381.443" filterUnits="userSpaceOnUse" color-interpolation-filters="sRGB">
<feFlood flood-opacity="0" result="BackgroundImageFix"/>
<feBlend mode="normal" in="SourceGraphic" in2="BackgroundImageFix" result="shape"/>
<feGaussianBlur stdDeviation="10.7125" result="effect1_foregroundBlur_23_36457"/>
</filter>
<linearGradient id="paint0_linear_23_36457" x1="-282.528" y1="549.299" x2="87.1039" y2="268.353" gradientUnits="userSpaceOnUse">
<stop stop-color="white"/>
<stop offset="1" stop-color="white" stop-opacity="0"/>
</linearGradient>
<linearGradient id="paint1_linear_23_36457" x1="-262.528" y1="699.299" x2="107.104" y2="418.353" gradientUnits="userSpaceOnUse">
<stop stop-color="white"/>
<stop offset="1" stop-color="white" stop-opacity="0"/>
</linearGradient>
<linearGradient id="paint2_linear_23_36457" x1="-203.443" y1="667.327" x2="324.091" y2="344.481" gradientUnits="userSpaceOnUse">
<stop stop-color="white"/>
<stop offset="1" stop-color="white" stop-opacity="0"/>
</linearGradient>
<linearGradient id="paint3_linear_23_36457" x1="-179.945" y1="632.998" x2="127.811" y2="253.428" gradientUnits="userSpaceOnUse">
<stop stop-color="white"/>
<stop offset="1" stop-color="white" stop-opacity="0"/>
</linearGradient>
<linearGradient id="paint4_linear_23_36457" x1="-159.394" y1="637.385" x2="140.845" y2="339.727" gradientUnits="userSpaceOnUse">
<stop stop-color="white"/>
<stop offset="1" stop-color="white" stop-opacity="0"/>
</linearGradient>
<linearGradient id="paint5_linear_23_36457" x1="-166.951" y1="640.027" x2="138.426" y2="345.095" gradientUnits="userSpaceOnUse">
<stop stop-color="white"/>
<stop offset="1" stop-color="white" stop-opacity="0"/>
</linearGradient>
</defs>
</svg>
